<?xml version="1.0" standalone="no"?>
<!DOCTYPE svg PUBLIC "-//W3C//DTD SVG 20010904//EN"
 "http://www.w3.org/TR/2001/REC-SVG-20010904/DTD/svg10.dtd">
<svg version="1.0" xmlns="http://www.w3.org/2000/svg"
 width="1028.000000pt" height="1028.000000pt" viewBox="0 0 1028.000000 1028.000000"
 preserveAspectRatio="xMidYMid meet">
<metadata>
Created by potrace 1.14, written by Peter Selinger 2001-2017
</metadata>
<g transform="translate(0.000000,1028.000000) scale(0.100000,-0.100000)"
fill="#000000" stroke="none">
<path d="M4270 10079 c-459 -18 -1035 -56 -1508 -100 -123 -11 -229 -18 -237
-15 -8 3 -17 0 -21 -5 -4 -7 -20 -8 -41 -4 -21 4 -40 2 -49 -6 -7 -6 -21 -8
-30 -5 -51 20 -1640 -196 -1670 -227 -6 -6 36 -103 123 -285 29 -62 64 -141
77 -175 13 -34 52 -122 85 -196 l61 -134 0 -1446 0 -1447 -132 -18 c-73 -9
-143 -20 -155 -23 -22 -5 -23 -9 -25 -151 l-3 -147 -155 -22 c-85 -13 -163
-21 -172 -19 -10 2 -21 0 -24 -6 -3 -5 -17 -7 -31 -4 -13 4 -29 3 -36 -1 -7
-4 -24 -6 -39 -4 -16 1 -28 -2 -28 -9 0 -6 -4 -8 -10 -5 -15 10 -250 -27 -250
-39 0 -16 67 -191 90 -236 11 -21 33 -74 51 -117 17 -43 76 -170 131 -282
l100 -205 -26 -155 c-33 -200 -54 -397 -65 -619 -4 -97 -7 -178 -6 -180 1 -1
47 4 101 12 180 27 518 67 581 69 35 1 63 6 63 11 0 5 20 6 44 3 24 -4 46 -3
50 1 4 3 22 5 41 3 19 -1 39 0 45 4 5 3 48 8 95 11 l85 4 11 -27 c6 -16 12
-35 14 -43 2 -8 4 -16 5 -17 2 -2 3 -6 4 -10 11 -48 160 -375 223 -490 24 -46
42 -83 39 -83 -8 0 23 -63 34 -70 4 -3 15 -21 25 -40 33 -66 243 -415 282
-467 21 -29 86 -119 145 -200 173 -237 367 -463 597 -694 302 -302 521 -485
875 -734 54 -39 116 -83 138 -99 42 -30 321 -199 442 -267 39 -22 85 -49 103
-60 17 -11 41 -22 54 -24 12 -3 25 -9 28 -14 7 -11 496 -251 512 -251 6 0 48
-18 94 -40 46 -22 95 -40 108 -40 13 0 62 17 108 38 93 43 119 54 134 57 19 4
659 326 665 334 3 4 66 43 140 86 168 97 440 274 440 286 0 5 7 9 15 9 8 0 15
5 15 10 0 6 6 10 14 10 8 0 17 7 20 16 4 9 9 14 13 10 6 -6 66 34 88 58 6 6
69 57 140 112 356 277 709 624 988 974 55 69 104 127 108 128 5 2 9 10 9 18 0
8 4 14 10 14 10 0 77 92 71 99 -1 2 4 8 13 13 9 5 16 14 16 19 0 6 6 17 14 25
23 22 198 291 241 369 21 39 66 115 99 170 51 85 111 207 272 552 44 95 102
252 95 259 -3 4 30 3 74 -1 44 -4 106 -9 138 -11 33 -1 61 -5 64 -8 4 -3 23
-3 43 0 22 4 40 2 44 -4 4 -6 13 -9 21 -6 14 6 255 -21 545 -60 96 -13 177
-22 179 -20 8 7 -18 414 -34 549 -9 72 -18 146 -20 165 -1 19 -6 43 -10 53 -4
9 -5 24 -2 32 4 8 2 17 -3 20 -5 3 -7 12 -3 20 3 8 2 23 -2 33 -14 33 -11 77
8 116 10 21 20 46 22 55 2 9 47 106 100 216 107 219 145 302 150 325 2 8 20
59 40 113 20 54 35 100 33 101 -9 7 -310 46 -317 41 -5 -3 -12 -1 -15 4 -3 5
-15 7 -26 4 -11 -3 -28 -2 -37 2 -10 5 -22 8 -28 7 -5 -1 -82 9 -170 22 l-160
23 -3 145 c-2 138 -4 146 -23 151 -12 3 -79 14 -150 23 l-129 18 0 1451 0
1452 54 119 c29 65 75 163 100 218 26 54 49 106 51 115 2 9 35 86 73 171 61
135 68 156 54 162 -41 18 -685 114 -1122 167 -419 52 -519 62 -544 55 -13 -3
-27 -1 -31 5 -4 7 -21 9 -44 5 -23 -4 -41 -2 -45 4 -4 6 -13 9 -20 6 -7 -3
-116 4 -242 15 -599 54 -964 78 -1534 101 -282 11 -1347 11 -1650 -1z m633
-293 c18 -7 45 -28 60 -45 53 -64 44 -147 -24 -225 l-42 -47 43 -36 c51 -44
79 -102 80 -161 1 -190 -266 -310 -392 -176 -85 91 -52 234 70 303 15 9 13 14
-20 48 -68 70 -85 150 -49 229 44 97 178 151 274 110z m458 4 l139 0 0 -82 c0
-78 -1 -80 -18 -65 -15 14 -40 17 -129 17 l-110 0 -7 -31 c-13 -66 -11 -69 47
-69 149 0 221 -69 221 -210 0 -79 -11 -112 -61 -179 -48 -63 -191 -131 -279
-131 -30 0 -34 3 -34 25 0 16 7 28 18 31 82 27 126 51 161 89 84 92 77 223
-14 261 -19 8 -62 14 -95 14 l-62 0 6 28 c8 38 46 284 46 301 0 8 6 11 16 7 9
-3 78 -6 155 -6z m-979 -287 l3 -287 35 -23 c85 -54 91 -51 -103 -51 -106 0
-175 3 -171 9 3 5 23 18 44 29 22 11 44 29 50 40 15 28 9 475 -6 490 -6 6 -29
17 -50 25 -22 7 -39 17 -39 22 0 4 42 11 94 15 52 4 99 9 105 12 35 14 36 10
38 -281z m1533 268 c46 -21 97 -75 122 -129 21 -47 25 -265 5 -329 -19 -62
-72 -135 -117 -160 -74 -42 -170 -22 -228 46 -84 101 -97 312 -27 456 59 121
145 162 245 116z m-1925 -91 c0 -40 -4 -62 -12 -65 -7 -2 -105 -9 -218 -15
-629 -34 -1541 -119 -2194 -205 -104 -14 -192 -27 -194 -30 -3 -3 27 -78 67
-167 l71 -163 0 -1477 c0 -1434 -1 -1478 -19 -1478 -10 0 -39 -3 -65 -6 l-46
-7 0 1474 0 1474 -101 223 c-56 123 -98 226 -95 229 21 21 1167 156 1716 202
350 30 887 66 1033 70 l57 1 0 -60z m2555 45 c384 -23 683 -46 1050 -80 502
-48 1435 -162 1451 -178 2 -2 -41 -103 -96 -226 l-100 -222 0 -1475 c0 -1430
-1 -1474 -19 -1474 -10 0 -39 3 -65 6 l-46 7 2 1491 3 1491 69 148 c37 81 66
150 64 153 -9 9 -665 88 -1063 128 -445 45 -942 85 -1337 107 l-218 12 0 64
c0 62 0 63 28 63 15 0 140 -7 277 -15z m-2555 -255 c0 -71 23 -64 -275 -80
-423 -21 -1005 -71 -1535 -130 -352 -40 -502 -58 -507 -64 -3 -2 5 -26 16 -51
21 -47 21 -49 21 -1546 l0 -1499 -29 0 c-16 0 -43 -3 -60 -6 l-31 -6 0 1478 0
1479 -56 128 c-32 70 -55 129 -53 131 11 10 812 103 1220 140 429 40 1262 97
1282 88 4 -2 7 -30 7 -62z m2620 45 c460 -28 919 -67 1365 -115 218 -24 769
-92 774 -96 2 -2 -22 -58 -53 -125 l-56 -122 0 -1484 0 -1484 -57 7 c-32 3
-61 8 -65 11 -5 2 -8 672 -8 1487 l0 1484 25 57 c14 32 24 59 21 62 -5 6 -520
66 -833 98 -428 43 -976 86 -1288 100 -71 3 -145 8 -162 11 -33 5 -33 5 -33
64 l0 60 63 0 c34 0 172 -7 307 -15z m-2822 -514 c465 -103 847 -403 1047
-824 60 -126 97 -232 119 -339 101 -490 -42 -986 -386 -1344 -89 -92 -233
-211 -295 -243 -24 -12 -213 -28 -213 -18 0 3 39 26 87 52 177 94 345 239 474
410 106 142 202 359 246 558 26 117 26 427 0 547 -95 445 -369 799 -772 998
-108 54 -206 87 -328 114 -135 29 -415 32 -550 5 -603 -121 -1057 -605 -1138
-1214 -15 -111 -7 -341 16 -448 23 -110 77 -269 120 -356 154 -306 434 -560
757 -690 31 -12 28 -13 -67 -19 l-100 -6 -79 45 c-490 278 -792 848 -746 1411
37 456 263 852 639 1120 182 131 395 216 636 256 119 20 413 11 533 -15z
m3159 18 c440 -60 822 -304 1067 -682 98 -149 170 -329 213 -527 26 -122 26
-449 -1 -570 -96 -442 -355 -800 -736 -1019 l-65 -37 -100 6 c-97 6 -99 7 -65
20 67 26 221 110 294 160 159 110 317 282 420 458 165 281 224 650 157 979
-115 560 -555 997 -1121 1110 -135 27 -415 25 -549 -5 -278 -62 -506 -186
-702 -381 -118 -118 -164 -177 -238 -307 -170 -296 -229 -671 -155 -994 93
-411 359 -759 729 -955 39 -20 72 -39 75 -42 3 -3 -41 -3 -97 0 -100 6 -105 7
-163 47 -499 339 -743 912 -644 1510 50 298 193 571 418 795 232 231 495 370
803 424 124 22 339 27 460 10z m-3272 -164 c287 -43 543 -173 751 -380 207
-206 332 -451 380 -745 23 -136 14 -368 -20 -511 -57 -248 -183 -466 -375
-652 -113 -110 -217 -182 -355 -248 -184 -87 -203 -91 -461 -101 -334 -13
-398 -9 -527 35 -210 71 -366 165 -520 315 -193 187 -319 411 -379 672 -28
122 -36 365 -15 490 48 293 174 539 380 745 304 302 725 442 1141 380z m3265
0 c141 -21 261 -59 395 -124 697 -340 962 -1196 579 -1864 -167 -291 -424
-501 -752 -615 l-107 -37 -305 3 c-336 3 -357 6 -508 68 -186 77 -376 212
-498 352 -128 148 -213 296 -269 468 -48 144 -66 261 -66 422 1 357 124 666
369 923 222 234 482 363 832 413 65 9 244 4 330 -9z m-1060 -2755 c1094 -20
1904 -63 2725 -145 241 -24 583 -65 688 -82 l39 -6 -5 -301 c-5 -303 -17 -448
-58 -689 -35 -209 -103 -513 -118 -529 -3 -4 -78 1 -166 12 -730 89 -1652 151
-2690 180 -454 13 -1898 13 -2360 0 -1025 -28 -1968 -91 -2694 -180 -90 -11
-165 -19 -166 -18 -1 2 -14 50 -28 108 -104 419 -137 666 -144 1096 l-5 321
73 11 c167 27 732 87 1089 116 1118 93 2485 131 3820 106z m4145 -647 c-7 -29
-127 -294 -234 -516 l-81 -169 25 -141 c13 -78 31 -203 40 -277 15 -128 33
-389 28 -394 -2 -1 -82 8 -180 20 -97 12 -296 35 -442 50 -146 15 -270 31
-275 35 -4 4 4 43 18 86 l26 79 138 -17 c75 -10 144 -18 152 -19 12 0 25 36
52 138 92 345 153 734 173 1103 l7 125 280 -40 c279 -40 279 -40 273 -63z
m-9265 25 c0 -178 43 -536 96 -798 33 -167 109 -478 118 -487 3 -3 60 2 128
11 187 24 172 29 202 -60 14 -42 23 -81 20 -85 -3 -5 -20 -9 -37 -9 -32 0
-562 -58 -755 -83 -57 -7 -105 -9 -108 -5 -14 22 40 525 75 708 l19 95 -88
185 c-103 218 -196 418 -221 478 -14 32 -16 44 -6 47 21 8 480 73 520 74 l37
1 0 -72z m4720 -1083 c97 -27 247 -92 335 -147 521 -328 756 -945 584 -1532
-61 -204 -175 -393 -338 -557 -196 -197 -413 -314 -680 -369 -446 -91 -896 46
-1216 369 -135 136 -213 251 -286 422 -152 352 -143 752 26 1104 141 293 396
534 696 658 169 71 203 76 509 76 264 1 279 0 370 -24z m-1020 -41 c-524 -275
-823 -849 -746 -1430 42 -322 172 -583 405 -815 205 -206 429 -327 721 -392
135 -30 412 -29 550 1 190 41 384 125 535 230 103 72 287 256 349 350 173 262
249 508 249 807 0 227 -41 412 -138 611 -136 281 -382 528 -655 658 l-74 36
104 0 105 0 100 -67 c60 -41 144 -111 211 -178 221 -221 359 -483 421 -800 26
-137 24 -396 -5 -542 -120 -604 -570 -1060 -1179 -1195 -82 -19 -130 -22 -298
-23 -174 0 -214 3 -304 23 -140 32 -256 73 -377 136 -150 78 -237 140 -353
251 -236 227 -371 468 -443 792 -19 83 -22 129 -22 298 0 184 2 209 28 320 30
130 73 250 129 361 112 222 313 445 526 583 l64 41 101 0 101 0 -105 -56z
m-2496 -121 c35 -114 140 -361 235 -558 546 -1123 1462 -2013 2688 -2611 117
-57 220 -104 228 -104 26 0 436 206 625 315 315 181 631 401 910 634 143 120
441 411 570 556 446 505 808 1111 1026 1718 l38 107 51 0 c78 0 81 -6 55 -86
-122 -373 -355 -842 -610 -1224 -548 -821 -1294 -1471 -2270 -1977 -263 -137
-377 -186 -415 -179 -49 10 -561 271 -745 381 -347 207 -630 411 -930 669
-142 122 -433 414 -559 561 -434 506 -775 1085 -995 1690 -61 169 -63 163 30
164 l50 1 18 -57z m-186 -90 c61 -176 169 -427 268 -623 603 -1194 1608 -2127
2945 -2734 l125 -57 200 93 c573 269 1097 606 1539 991 127 111 398 381 519
517 476 535 843 1154 1077 1818 l43 122 51 0 c84 0 84 -1 35 -147 -280 -833
-853 -1695 -1539 -2315 -395 -357 -817 -655 -1300 -918 -170 -92 -607 -300
-630 -300 -15 0 -288 129 -486 230 -1442 735 -2490 1898 -2978 3307 -52 148
-54 140 38 142 l50 1 43 -127z"/>
<path d="M4750 9720 c-27 -27 -35 -65 -19 -102 14 -34 86 -108 105 -108 18 0
44 64 44 110 0 95 -76 154 -130 100z"/>
<path d="M4747 9362 c-24 -27 -37 -69 -37 -124 0 -83 39 -138 99 -138 51 0 97
79 84 144 -6 29 -100 136 -121 136 -5 0 -16 -8 -25 -18z"/>
<path d="M5801 9721 c-32 -32 -44 -121 -38 -276 7 -154 16 -202 51 -241 30
-35 68 -27 93 19 15 27 18 58 18 197 -1 178 -15 254 -55 298 -25 27 -44 28
-69 3z"/>
<path d="M3280 8434 c-14 -3 -59 -17 -100 -31 -118 -41 -325 -44 -477 -6 l-23
5 0 -661 0 -661 -34 -68 c-70 -138 -65 -181 -65 548 l0 655 24 40 c14 22 25
43 25 48 0 13 -115 8 -136 -7 -17 -13 -19 -30 -22 -163 -2 -99 -7 -150 -15
-155 -7 -4 -31 -8 -54 -8 -32 0 -46 -5 -57 -22 -18 -25 -21 -103 -6 -142 9
-24 14 -26 70 -26 l60 0 0 -270 0 -270 -48 0 c-74 0 -87 -15 -87 -100 0 -88
12 -102 86 -93 l49 6 0 -137 c0 -170 3 -176 106 -169 401 26 738 38 817 29 58
-6 118 -6 175 1 67 7 180 4 482 -12 339 -19 398 -20 418 -8 21 13 22 19 22
155 l0 141 50 -6 c71 -9 90 11 90 93 0 79 -19 100 -90 100 l-50 0 0 270 0 270
60 0 c71 0 80 10 80 98 0 67 -17 92 -66 92 -76 0 -74 -4 -74 156 0 176 -5 184
-100 184 -33 0 -60 -3 -60 -8 0 -4 11 -24 25 -44 l25 -37 0 -658 c-1 -732 4
-689 -66 -551 l-34 68 0 661 0 661 -22 -5 c-86 -21 -174 -29 -281 -24 -100 4
-136 10 -197 32 -90 33 -202 38 -262 12 -34 -14 -42 -14 -72 -2 -38 16 -127
26 -166 19z m118 -120 l22 -6 0 -600 c0 -420 -3 -597 -11 -593 -27 17 -155 6
-221 -19 -83 -31 -230 -49 -318 -39 l-65 8 -3 595 -2 595 152 1 c145 0 158 2
238 31 82 29 161 39 208 27z m344 -18 c88 -33 212 -50 325 -43 l93 5 0 -597 0
-598 -78 -7 c-100 -8 -226 8 -310 40 -66 25 -195 36 -221 19 -8 -4 -11 171
-11 589 0 674 -8 615 86 616 31 0 78 -10 116 -24z"/>
<path d="M6140 8510 l0 -120 -25 0 c-19 0 -25 5 -25 23 0 67 -91 63 -126 -5
-21 -41 -15 -129 12 -159 45 -50 114 -44 114 11 0 25 4 30 25 30 l25 0 0 -134
c0 -235 -28 -360 -127 -563 -73 -153 -86 -219 -80 -408 8 -211 64 -432 168
-655 l42 -90 604 0 604 0 44 93 c136 287 200 622 161 846 -13 75 -30 123 -82
233 -95 201 -114 286 -114 504 l0 174 25 0 c21 0 25 -5 25 -30 0 -70 96 -56
127 18 37 89 -24 197 -101 178 -21 -5 -26 -13 -26 -36 0 -25 -4 -30 -25 -30
l-25 0 0 120 0 120 -120 0 -120 0 0 -120 0 -120 -70 0 c-54 0 -70 3 -70 14 0
16 -34 31 -50 21 -5 -3 -10 -13 -10 -21 0 -11 -15 -14 -68 -14 -56 0 -69 3
-80 20 -7 11 -19 20 -28 20 -9 0 -18 -9 -21 -20 -5 -17 -14 -20 -72 -20 -55 0
-68 3 -79 20 -7 11 -19 20 -27 20 -8 0 -19 -9 -25 -20 -9 -17 -21 -20 -75 -20
l-65 0 0 120 0 120 -120 0 -120 0 0 -120z m370 -795 c0 -420 -3 -575 -11 -575
-23 0 -115 60 -156 102 -115 118 -117 273 -4 400 l41 46 0 301 0 301 65 0 65
0 0 -575z m205 -25 l0 -595 -45 2 c-25 1 -55 5 -67 8 l-23 5 0 591 0 590 68
-3 67 -3 0 -595z m205 11 l0 -589 -50 -11 c-28 -6 -60 -11 -70 -11 -20 0 -20
12 -20 600 l0 600 70 0 70 0 0 -589z m200 283 l0 -307 41 -44 c103 -112 107
-250 9 -373 -34 -43 -122 -105 -163 -115 l-27 -7 0 576 0 576 70 0 70 0 0
-306z m-400 -1114 c0 -138 1 -136 -85 -125 l-55 6 0 114 c0 128 -5 122 88 124
l52 1 0 -120z m178 114 c21 -6 22 -11 22 -115 0 -66 -4 -110 -11 -114 -6 -4
-37 -9 -70 -12 l-59 -6 0 127 0 126 48 0 c26 0 57 -3 70 -6z m-388 -119 l0
-95 -26 10 c-41 16 -82 48 -89 71 -9 27 17 64 63 88 20 11 40 20 45 21 4 0 7
-43 7 -95z m530 75 c48 -24 74 -61 65 -90 -7 -22 -64 -63 -102 -75 -23 -6 -23
-5 -23 89 0 60 4 96 10 96 6 0 29 -9 50 -20z"/>
<path d="M6016 5875 c-271 -69 -436 -371 -371 -679 41 -193 170 -342 344 -397
91 -28 231 -28 322 0 228 72 372 301 355 566 -15 239 -138 421 -335 493 -85
31 -229 39 -315 17z m248 -66 c103 -38 189 -152 220 -291 48 -212 17 -445 -73
-564 -69 -90 -195 -135 -315 -113 -77 14 -121 37 -172 91 -90 94 -127 214
-127 418 0 146 15 224 58 310 32 62 115 136 174 154 69 22 170 20 235 -5z"/>
<path d="M4980 5865 c0 -6 19 -16 43 -22 23 -6 58 -22 77 -35 33 -22 35 -28
43 -98 13 -114 3 -760 -12 -788 -13 -24 -56 -49 -115 -67 -22 -7 -41 -16 -43
-21 -2 -5 100 -9 242 -9 257 0 276 4 169 39 -84 27 -91 39 -99 163 -4 59 -5
249 -2 421 4 258 8 316 20 336 10 14 42 33 83 48 38 14 69 29 71 34 2 5 -102
9 -237 9 -160 0 -240 -3 -240 -10z"/>
<path d="M4320 5858 c-41 -4 -135 -6 -209 -2 -153 7 -167 -3 -58 -40 37 -13
73 -28 79 -34 21 -21 27 -109 34 -489 l7 -381 -26 -24 c-14 -14 -51 -33 -82
-43 -71 -25 -76 -51 -7 -41 26 3 203 9 393 13 l346 6 7 75 c9 115 8 184 -5
180 -6 -2 -24 -39 -41 -81 -42 -111 -43 -111 -258 -116 l-177 -3 -7 78 c-3 44
-9 244 -13 445 l-6 365 28 22 c15 12 54 31 86 43 98 36 65 46 -91 27z"/>
<path d="M3605 5850 c-96 -11 -488 -30 -620 -30 -93 0 -106 -2 -103 -16 2 -11
28 -25 71 -39 37 -12 74 -28 82 -36 9 -9 18 -55 24 -124 16 -176 33 -551 29
-660 l-3 -100 -75 -38 c-95 -48 -101 -62 -24 -54 108 12 357 26 577 33 l218 7
-3 130 c-3 151 -17 173 -42 71 -21 -81 -40 -121 -63 -128 -40 -12 -205 -26
-314 -26 l-117 0 -7 98 c-16 221 -21 347 -16 354 3 3 85 9 181 13 205 8 204 8
244 -90 29 -71 52 -88 42 -29 -3 22 -9 108 -13 192 -3 83 -9 152 -13 152 -4 0
-17 -26 -28 -58 -33 -90 -35 -92 -137 -102 -50 -5 -133 -10 -185 -11 l-95 -2
-8 94 c-4 52 -6 144 -5 204 l3 110 178 6 c99 3 195 3 215 0 42 -7 72 -44 93
-116 22 -73 36 -56 32 38 -6 136 -12 167 -31 166 -9 -1 -48 -5 -87 -9z"/>
<path d="M6850 5827 c0 -8 20 -22 48 -32 26 -10 62 -29 81 -43 l34 -25 -7
-181 c-7 -193 -32 -565 -42 -631 -9 -56 -27 -72 -106 -96 -37 -12 -68 -25 -68
-30 0 -5 51 -9 114 -9 63 0 169 -7 236 -16 151 -19 174 -9 67 31 -26 10 -59
29 -73 42 l-27 25 7 191 c4 106 10 203 13 216 6 23 8 23 77 18 50 -5 74 -11
83 -23 14 -19 205 -354 266 -465 l36 -66 98 -7 c54 -3 157 -8 228 -11 72 -3
158 -11 193 -19 56 -12 63 -12 60 2 -2 8 -21 20 -43 27 -55 16 -85 36 -85 57
0 23 99 245 114 256 13 10 406 -24 417 -35 8 -9 54 -171 64 -226 11 -57 -8
-71 -127 -92 -72 -12 -37 -22 100 -28 75 -4 182 -14 236 -22 118 -18 106 -17
106 -5 0 6 -20 19 -45 30 -25 11 -56 30 -69 43 -27 27 -108 269 -249 747 -69
233 -97 316 -109 318 -18 4 -14 12 -233 -403 -196 -370 -293 -545 -318 -573
-12 -12 -45 -29 -73 -38 -47 -13 -56 -13 -81 0 -30 15 -68 53 -100 101 -44 65
-233 427 -228 436 4 5 14 9 23 9 26 0 133 53 170 85 107 90 99 272 -15 347
-85 55 -189 78 -367 78 -135 1 -362 15 -389 26 -11 4 -17 1 -17 -9z m571 -96
c99 -38 146 -114 133 -215 -18 -128 -125 -185 -323 -172 -52 3 -96 7 -97 9 -2
2 3 91 11 198 8 107 15 198 15 203 0 17 202 0 261 -23z m1075 -455 c30 -104
52 -191 50 -193 -5 -6 -347 25 -353 31 -4 3 159 318 205 399 l17 27 13 -37 c7
-21 38 -123 68 -227z"/>
<path d="M2485 5780 c-33 -4 -85 -8 -117 -9 -54 -1 -56 -2 -68 -33 -6 -18 -44
-130 -85 -248 -70 -207 -146 -416 -180 -496 l-16 -39 -30 55 c-92 166 -264
490 -314 589 l-56 114 -52 -7 c-29 -3 -96 -9 -150 -13 -101 -6 -122 -20 -56
-35 70 -18 88 -29 100 -66 15 -44 6 -638 -11 -772 -13 -99 -26 -118 -106 -151
-67 -28 -74 -51 -11 -37 23 5 114 12 201 16 177 8 212 22 107 43 -85 16 -91
23 -102 110 -9 84 -10 669 0 713 6 27 8 24 52 -55 75 -135 286 -534 351 -662
32 -65 64 -117 70 -115 6 2 37 89 70 193 74 240 177 545 219 655 l33 85 28
-115 c45 -187 118 -553 125 -624 7 -80 -4 -97 -81 -122 -53 -17 -74 -30 -64
-39 3 -4 53 1 111 9 57 9 161 16 231 16 98 0 126 3 126 13 0 8 -24 20 -57 30
-32 9 -66 22 -76 29 -25 19 -55 125 -121 430 -73 334 -88 422 -77 452 7 16 30
32 75 52 36 16 66 32 66 36 0 9 -49 8 -135 -2z"/>
<path d="M5175 4270 c-59 -9 -226 -58 -239 -71 -6 -5 -2 -32 9 -69 14 -45 24
-62 39 -65 36 -8 199 -25 236 -25 l36 0 27 83 c32 96 33 118 9 140 -20 18 -37
19 -117 7z"/>
<path d="M5365 3994 c-80 -25 -183 -28 -336 -9 -157 20 -234 16 -325 -15 -85
-30 -134 -62 -197 -129 -94 -102 -138 -230 -117 -340 30 -160 129 -265 282
-301 65 -15 268 -13 268 3 0 20 -27 138 -45 200 l-16 57 -40 0 c-137 0 -188
152 -81 242 61 51 135 72 257 72 101 0 116 -3 188 -32 141 -58 276 -64 468
-22 127 28 141 38 137 103 l-3 52 -75 32 c-41 17 -105 46 -141 62 -82 38 -157
46 -224 25z m163 -88 l23 -22 -40 -14 c-35 -11 -43 -11 -66 4 -29 19 -32 41
-7 55 23 15 62 5 90 -23z"/>
<path d="M5006 3639 c-5 -40 -17 -81 -32 -107 l-26 -43 31 -121 c17 -66 31
-139 31 -163 0 -24 4 -46 8 -49 5 -3 56 -2 114 1 l105 6 17 83 c21 107 21 109
-10 150 -26 33 -26 35 -19 144 l7 110 -48 21 c-27 12 -76 24 -110 27 l-61 4
-7 -63z"/>
<path d="M5295 3526 c-6 -59 -4 -68 19 -103 15 -21 26 -52 26 -70 0 -27 4 -32
29 -38 53 -11 98 -82 86 -135 -3 -15 -19 -40 -35 -55 -29 -27 -30 -28 -217
-36 -323 -15 -401 -32 -482 -105 -88 -79 -122 -184 -87 -269 21 -48 85 -106
158 -142 59 -29 168 -66 174 -60 7 7 -29 212 -38 216 -6 2 -24 15 -40 30 -27
24 -28 27 -13 48 25 35 77 43 292 43 222 0 278 8 370 51 68 32 113 78 158 160
74 137 20 356 -112 453 -58 43 -156 76 -228 76 l-53 0 -7 -64z"/>
<path d="M5010 2761 c0 -10 7 -72 16 -137 15 -110 15 -121 -1 -174 -17 -55
-16 -153 1 -212 12 -40 -99 -5 -145 45 -25 28 -29 56 -16 120 9 45 -5 49 -40
11 -50 -54 -45 -142 12 -205 39 -43 92 -75 158 -94 l40 -12 8 -79 c6 -67 11
-82 33 -102 15 -13 31 -21 37 -19 24 8 49 57 59 119 l12 66 45 7 c105 15 211
89 255 177 45 90 30 226 -30 280 -30 27 -135 71 -144 62 -5 -5 -12 -46 -16
-91 -7 -79 -6 -83 20 -113 33 -40 33 -70 0 -110 -24 -28 -91 -70 -111 -70 -10
0 11 267 32 399 12 76 12 99 2 120 -12 25 -15 26 -120 29 -100 2 -107 1 -107
-17z"/>
</g>
</svg>
